<svg width="45" height="45" viewBox="0 0 45 45" fill="none" xmlns="http://www.w3.org/2000/svg">
<rect width="45" height="45" rx="22.5" fill="#4D5756"/>
<path d="M22.6868 17.8066C24.7786 17.8066 26.5052 19.5332 26.5052 21.625C26.5052 23.75 24.7786 25.4434 22.6868 25.4434C20.5618 25.4434 18.8684 23.75 18.8684 21.625C18.8684 19.5332 20.5618 17.8066 22.6868 17.8066ZM22.6868 24.1152C24.0481 24.1152 25.1438 23.0195 25.1438 21.625C25.1438 20.2637 24.0481 19.168 22.6868 19.168C21.2923 19.168 20.1966 20.2637 20.1966 21.625C20.1966 23.0195 21.3255 24.1152 22.6868 24.1152ZM27.5345 17.6738C27.5345 18.1719 27.136 18.5703 26.638 18.5703C26.1399 18.5703 25.7415 18.1719 25.7415 17.6738C25.7415 17.1758 26.1399 16.7773 26.638 16.7773C27.136 16.7773 27.5345 17.1758 27.5345 17.6738ZM30.0579 18.5703C30.1243 19.7988 30.1243 23.4844 30.0579 24.7129C29.9915 25.9082 29.7259 26.9375 28.8626 27.834C27.9993 28.6973 26.9368 28.9629 25.7415 29.0293C24.513 29.0957 20.8274 29.0957 19.5989 29.0293C18.4036 28.9629 17.3743 28.6973 16.4778 27.834C15.6145 26.9375 15.3489 25.9082 15.2825 24.7129C15.2161 23.4844 15.2161 19.7988 15.2825 18.5703C15.3489 17.375 15.6145 16.3125 16.4778 15.4492C17.3743 14.5859 18.4036 14.3203 19.5989 14.2539C20.8274 14.1875 24.513 14.1875 25.7415 14.2539C26.9368 14.3203 27.9993 14.5859 28.8626 15.4492C29.7259 16.3125 29.9915 17.375 30.0579 18.5703ZM28.4642 26.0078C28.8626 25.0449 28.763 22.7207 28.763 21.625C28.763 20.5625 28.8626 18.2383 28.4642 17.2422C28.1985 16.6113 27.7005 16.0801 27.0696 15.8477C26.0735 15.4492 23.7493 15.5488 22.6868 15.5488C21.5911 15.5488 19.2669 15.4492 18.304 15.8477C17.6399 16.1133 17.1419 16.6113 16.8763 17.2422C16.4778 18.2383 16.5774 20.5625 16.5774 21.625C16.5774 22.7207 16.4778 25.0449 16.8763 26.0078C17.1419 26.6719 17.6399 27.1699 18.304 27.4355C19.2669 27.834 21.5911 27.7344 22.6868 27.7344C23.7493 27.7344 26.0735 27.834 27.0696 27.4355C27.7005 27.1699 28.2317 26.6719 28.4642 26.0078Z" fill="#00BEAE"/>
<a href="https://www.figma.com/design/Nx4sNsAeWJfmVVOXuDSmxJ/Untitled?node-id=2-2093">
<rect fill="black" fill-opacity="0" x="0.18925" y="-1.275" width="14.875" height="19.55"/>
</a>
</svg>
