 <svg width="14" height="14" viewBox="0 0 14 14" fill="none" xmlns="http://www.w3.org/2000/svg">
<path d="M12.4221 7.85156C12.8615 8.4082 13.1252 9.11133 13.0959 9.84375C13.0959 11.6602 11.631 13.125 9.81463 13.125C9.08221 13.125 8.37909 12.8906 7.82244 12.4512C7.41229 12.5391 6.97284 12.5977 6.53338 12.5977C3.22284 12.5977 0.527523 9.90234 0.527523 6.5625C0.527523 6.15234 0.586117 5.71289 0.674007 5.30273C0.234554 4.74609 0.000179291 4.04297 0.000179291 3.28125C0.000179291 1.49414 1.46502 0 3.28143 0C4.01385 0 4.71698 0.263672 5.27362 0.703125C5.68377 0.615234 6.12323 0.556641 6.56268 0.556641C9.87323 0.556641 12.5685 3.25195 12.5685 6.5625C12.5685 7.00195 12.5099 7.44141 12.4221 7.85156ZM6.73846 10.5469C8.34979 10.5469 10.0197 9.72656 10.0197 7.99805C10.0197 6.50391 8.55487 6.00586 7.35369 5.74219C5.94744 5.39062 5.33221 5.33203 5.33221 4.77539C5.33221 4.30664 5.80096 4.10156 6.56268 4.10156C7.91034 4.10156 7.93963 5.09766 8.75994 5.09766C9.31659 5.09766 9.63885 4.6582 9.63885 4.16016C9.63885 3.16406 7.99823 2.51953 6.3869 2.51953C4.92205 2.51953 3.19354 3.16406 3.19354 4.92188C3.19354 6.82617 4.83416 7.00195 6.65057 7.4707C7.41229 7.64648 7.88104 7.73438 7.88104 8.29102C7.88104 8.73047 7.38299 9.05273 6.65057 9.05273C5.06854 9.05273 4.98065 7.73438 4.07244 7.73438C3.45721 7.73438 3.19354 8.17383 3.19354 8.64258C3.19354 9.69727 4.80487 10.5469 6.73846 10.5469Z" fill="white"/>
<a href="https://www.figma.com/design/Nx4sNsAeWJfmVVOXuDSmxJ/Untitled?node-id=2-2093">
<rect fill="black" fill-opacity="0" x="0.356625" y="-1.125" width="13.125" height="17.25"/>
</a>
</svg>
