<svg width="37" height="34" viewBox="0 0 37 34" fill="none" xmlns="http://www.w3.org/2000/svg">
<path d="M30.7628 28.6099L24.3082 22.2584C25.9984 20.422 27.037 17.9934 27.037 15.3209C27.0362 9.60387 22.3273 4.97 16.5181 4.97C10.7089 4.97 6 9.60387 6 15.3209C6 21.0378 10.7089 25.6717 16.5181 25.6717C19.0281 25.6717 21.3301 24.8035 23.1384 23.3602L29.618 29.7367C29.9338 30.0477 30.4463 30.0477 30.7621 29.7367C31.0785 29.4257 31.0785 28.9209 30.7628 28.6099ZM16.5181 24.0792C11.6029 24.0792 7.61836 20.1579 7.61836 15.3209C7.61836 10.4838 11.6029 6.56254 16.5181 6.56254C21.4333 6.56254 25.4178 10.4838 25.4178 15.3209C25.4178 20.1579 21.4333 24.0792 16.5181 24.0792Z" fill="#0E2A46"/>
</svg>
