<svg width="279" height="140" viewBox="0 0 279 140" fill="none" xmlns="http://www.w3.org/2000/svg">
<g filter="url(#filter0_d_2_2367)">
<rect x="20" y="20" width="238.91" height="100" rx="50" fill="white" shape-rendering="crispEdges"/>
<path d="M80.744 69.112C78.84 69.112 77.2307 68.7267 75.916 67.956C74.6013 67.1627 73.604 66.1313 72.924 64.862C72.244 63.5927 71.904 62.244 71.904 60.816H75.1C75.1 61.8587 75.3267 62.788 75.78 63.604C76.256 64.42 76.9133 65.066 77.752 65.542C78.5907 66.018 79.588 66.256 80.744 66.256C81.8773 66.256 82.8633 66.0293 83.702 65.576C84.5633 65.1 85.232 64.454 85.708 63.638C86.184 62.7993 86.422 61.8587 86.422 60.816C86.422 59.7733 86.184 58.8327 85.708 57.994C85.2547 57.1553 84.5973 56.4867 83.736 55.988C82.8973 55.4893 81.9 55.24 80.744 55.24C79.9053 55.24 79.0553 55.3873 78.194 55.682C77.3327 55.954 76.6413 56.3507 76.12 56.872H73.128L74.386 43.68H87.408V46.468H76.29L77.106 45.346L76.154 54.968L75.27 54.662C75.9273 54.0047 76.7207 53.4833 77.65 53.098C78.602 52.7127 79.6787 52.52 80.88 52.52C82.784 52.52 84.382 52.9167 85.674 53.71C86.966 54.4807 87.9407 55.4893 88.598 56.736C89.278 57.96 89.618 59.2407 89.618 60.578V61.054C89.618 62.3913 89.278 63.6833 88.598 64.93C87.918 66.154 86.9093 67.1627 85.572 67.956C84.2573 68.7267 82.648 69.112 80.744 69.112ZM93.6656 68.5V64.352H97.6096V68.5H93.6656ZM110.894 69.112C109.126 69.112 107.551 68.7947 106.168 68.16C104.808 67.5253 103.731 66.6413 102.938 65.508C102.167 64.3747 101.782 63.06 101.782 61.564C101.782 60.5667 101.975 59.6713 102.36 58.878C102.745 58.062 103.278 57.3593 103.958 56.77C104.638 56.1807 105.409 55.7273 106.27 55.41V55.07C105.59 54.7753 104.967 54.3787 104.4 53.88C103.856 53.3813 103.414 52.792 103.074 52.112C102.757 51.432 102.598 50.6613 102.598 49.8C102.598 48.372 102.972 47.1593 103.72 46.162C104.491 45.1647 105.499 44.4053 106.746 43.884C108.015 43.34 109.398 43.068 110.894 43.068C112.413 43.068 113.795 43.34 115.042 43.884C116.311 44.4053 117.32 45.1647 118.068 46.162C118.816 47.1593 119.19 48.372 119.19 49.8C119.19 50.6613 119.031 51.432 118.714 52.112C118.397 52.792 117.955 53.3813 117.388 53.88C116.844 54.3787 116.221 54.7753 115.518 55.07V55.41C116.402 55.7273 117.184 56.192 117.864 56.804C118.544 57.3933 119.077 58.096 119.462 58.912C119.847 59.7053 120.04 60.5893 120.04 61.564C120.04 63.06 119.643 64.3747 118.85 65.508C118.079 66.6413 117.003 67.5253 115.62 68.16C114.26 68.7947 112.685 69.112 110.894 69.112ZM110.894 66.324C112.141 66.324 113.206 66.1313 114.09 65.746C114.974 65.338 115.654 64.7713 116.13 64.046C116.606 63.298 116.844 62.4253 116.844 61.428C116.844 60.4307 116.606 59.5693 116.13 58.844C115.677 58.1187 115.008 57.5633 114.124 57.178C113.24 56.77 112.163 56.566 110.894 56.566C109.647 56.566 108.582 56.77 107.698 57.178C106.814 57.5633 106.134 58.1187 105.658 58.844C105.205 59.5693 104.978 60.4307 104.978 61.428C104.978 62.4253 105.205 63.298 105.658 64.046C106.134 64.7713 106.814 65.338 107.698 65.746C108.582 66.1313 109.647 66.324 110.894 66.324ZM110.894 53.982C112.435 53.982 113.671 53.6533 114.6 52.996C115.529 52.316 115.994 51.2847 115.994 49.902C115.994 48.4967 115.518 47.4767 114.566 46.842C113.637 46.1847 112.413 45.856 110.894 45.856C109.375 45.856 108.14 46.1847 107.188 46.842C106.259 47.4993 105.794 48.5193 105.794 49.902C105.794 51.2847 106.259 52.316 107.188 52.996C108.14 53.6533 109.375 53.982 110.894 53.982ZM137.37 68.5L130.536 60.034H127.544L135.874 50.344H139.308L131.76 59.082L131.998 57.348L141.144 68.5H137.37ZM124.858 68.5V43.68H128.122V68.5H124.858Z" fill="#FF9E0E"/>
<path d="M75.488 90.788C74.5173 90.788 73.6907 90.628 73.008 90.308C72.3253 89.988 71.8027 89.5453 71.44 88.98C71.0773 88.4147 70.896 87.7747 70.896 87.06H72.464C72.464 87.412 72.5547 87.764 72.736 88.116C72.928 88.468 73.2427 88.7613 73.68 88.996C74.128 89.2307 74.7307 89.348 75.488 89.348C76.192 89.348 76.768 89.2467 77.216 89.044C77.664 88.8307 77.9947 88.5587 78.208 88.228C78.4213 87.8867 78.528 87.5187 78.528 87.124C78.528 86.644 78.32 86.2493 77.904 85.94C77.488 85.62 76.88 85.4227 76.08 85.348L74.784 85.236C73.7493 85.1507 72.9227 84.8307 72.304 84.276C71.6853 83.7213 71.376 82.9907 71.376 82.084C71.376 81.3693 71.5467 80.7453 71.888 80.212C72.24 79.6787 72.7253 79.2627 73.344 78.964C73.9627 78.6547 74.6827 78.5 75.504 78.5C76.3147 78.5 77.0293 78.6493 77.648 78.948C78.2667 79.2467 78.7467 79.668 79.088 80.212C79.44 80.7453 79.616 81.3853 79.616 82.132H78.048C78.048 81.7587 77.9573 81.4067 77.776 81.076C77.6053 80.7453 77.3333 80.4733 76.96 80.26C76.5867 80.0467 76.1013 79.94 75.504 79.94C74.928 79.94 74.448 80.0413 74.064 80.244C73.6907 80.4467 73.408 80.7133 73.216 81.044C73.0347 81.364 72.944 81.7107 72.944 82.084C72.944 82.5107 73.1093 82.8893 73.44 83.22C73.7707 83.5507 74.2613 83.7427 74.912 83.796L76.208 83.908C77.008 83.972 77.696 84.1427 78.272 84.42C78.8587 84.6867 79.3067 85.0493 79.616 85.508C79.936 85.956 80.096 86.4947 80.096 87.124C80.096 87.8387 79.904 88.4733 79.52 89.028C79.136 89.5827 78.5973 90.0147 77.904 90.324C77.2107 90.6333 76.4053 90.788 75.488 90.788ZM85.4633 90.756C84.4499 90.756 83.6713 90.4253 83.1273 89.764C82.5833 89.1027 82.3113 88.148 82.3113 86.9V81.94H83.8473V87.204C83.8473 87.876 84.0286 88.404 84.3913 88.788C84.7539 89.1613 85.2446 89.348 85.8633 89.348C86.5033 89.348 87.0259 89.1453 87.4313 88.74C87.8366 88.324 88.0393 87.7587 88.0393 87.044V81.94H89.5753V90.5H88.3593V86.836H88.5513C88.5513 87.6787 88.4393 88.3933 88.2153 88.98C87.9913 89.556 87.6553 89.9987 87.2073 90.308C86.7699 90.6067 86.2099 90.756 85.5273 90.756H85.4633ZM96.2141 90.788C95.4781 90.788 94.8381 90.66 94.2941 90.404C93.7608 90.148 93.3181 89.8067 92.9661 89.38C92.6141 88.9427 92.3475 88.4627 92.1661 87.94C91.9955 87.4173 91.9101 86.8947 91.9101 86.372V86.084C91.9101 85.54 91.9955 85.0067 92.1661 84.484C92.3475 83.9613 92.6141 83.492 92.9661 83.076C93.3288 82.6493 93.7768 82.308 94.3101 82.052C94.8435 81.796 95.4675 81.668 96.1821 81.668C96.8968 81.668 97.5368 81.8013 98.1021 82.068C98.6781 82.3347 99.1368 82.7133 99.4781 83.204C99.8301 83.684 100.027 84.2547 100.07 84.916H98.5981C98.5235 84.3827 98.2781 83.94 97.8621 83.588C97.4461 83.2253 96.8861 83.044 96.1821 83.044C95.5741 83.044 95.0675 83.1827 94.6621 83.46C94.2568 83.7373 93.9528 84.116 93.7501 84.596C93.5475 85.076 93.4461 85.62 93.4461 86.228C93.4461 86.8147 93.5475 87.3533 93.7501 87.844C93.9528 88.324 94.2568 88.708 94.6621 88.996C95.0781 89.2733 95.5955 89.412 96.2141 89.412C96.6941 89.412 97.1101 89.3267 97.4621 89.156C97.8141 88.9853 98.0968 88.756 98.3101 88.468C98.5235 88.18 98.6515 87.8547 98.6941 87.492H100.166C100.134 88.164 99.9368 88.7453 99.5741 89.236C99.2221 89.7267 98.7528 90.1107 98.1661 90.388C97.5901 90.6547 96.9395 90.788 96.2141 90.788ZM105.917 90.788C105.181 90.788 104.541 90.66 103.997 90.404C103.464 90.148 103.021 89.8067 102.669 89.38C102.317 88.9427 102.051 88.4627 101.869 87.94C101.699 87.4173 101.613 86.8947 101.613 86.372V86.084C101.613 85.54 101.699 85.0067 101.869 84.484C102.051 83.9613 102.317 83.492 102.669 83.076C103.032 82.6493 103.48 82.308 104.013 82.052C104.547 81.796 105.171 81.668 105.885 81.668C106.6 81.668 107.24 81.8013 107.805 82.068C108.381 82.3347 108.84 82.7133 109.181 83.204C109.533 83.684 109.731 84.2547 109.773 84.916H108.301C108.227 84.3827 107.981 83.94 107.565 83.588C107.149 83.2253 106.589 83.044 105.885 83.044C105.277 83.044 104.771 83.1827 104.365 83.46C103.96 83.7373 103.656 84.116 103.453 84.596C103.251 85.076 103.149 85.62 103.149 86.228C103.149 86.8147 103.251 87.3533 103.453 87.844C103.656 88.324 103.96 88.708 104.365 88.996C104.781 89.2733 105.299 89.412 105.917 89.412C106.397 89.412 106.813 89.3267 107.165 89.156C107.517 88.9853 107.8 88.756 108.013 88.468C108.227 88.18 108.355 87.8547 108.397 87.492H109.869C109.837 88.164 109.64 88.7453 109.277 89.236C108.925 89.7267 108.456 90.1107 107.869 90.388C107.293 90.6547 106.643 90.788 105.917 90.788ZM115.588 90.788C114.842 90.788 114.196 90.66 113.652 90.404C113.108 90.148 112.666 89.812 112.324 89.396C111.983 88.9693 111.727 88.4947 111.556 87.972C111.396 87.4493 111.316 86.916 111.316 86.372V86.084C111.316 85.5293 111.396 84.9907 111.556 84.468C111.727 83.9453 111.983 83.476 112.324 83.06C112.666 82.6333 113.098 82.2973 113.62 82.052C114.154 81.796 114.778 81.668 115.492 81.668C116.42 81.668 117.183 81.8707 117.78 82.276C118.388 82.6707 118.836 83.1827 119.124 83.812C119.423 84.4413 119.572 85.1133 119.572 85.828V86.516H111.988V85.364H118.452L118.1 85.988C118.1 85.38 118.004 84.8573 117.812 84.42C117.62 83.972 117.332 83.6253 116.948 83.38C116.564 83.1347 116.079 83.012 115.492 83.012C114.884 83.012 114.378 83.1507 113.972 83.428C113.578 83.7053 113.279 84.084 113.076 84.564C112.884 85.044 112.788 85.5987 112.788 86.228C112.788 86.836 112.884 87.3853 113.076 87.876C113.279 88.356 113.588 88.74 114.004 89.028C114.42 89.3053 114.948 89.444 115.588 89.444C116.26 89.444 116.804 89.2947 117.22 88.996C117.647 88.6973 117.903 88.3507 117.988 87.956H119.428C119.311 88.5427 119.076 89.0493 118.724 89.476C118.372 89.9027 117.93 90.228 117.396 90.452C116.863 90.676 116.26 90.788 115.588 90.788ZM124.553 90.756C123.433 90.756 122.564 90.516 121.945 90.036C121.337 89.556 121.023 88.9 121.001 88.068H122.441C122.463 88.3987 122.628 88.7133 122.937 89.012C123.257 89.3 123.796 89.444 124.553 89.444C125.236 89.444 125.759 89.3107 126.121 89.044C126.484 88.7667 126.665 88.4307 126.665 88.036C126.665 87.684 126.532 87.412 126.265 87.22C125.999 87.0173 125.567 86.884 124.969 86.82L124.041 86.724C123.231 86.6387 122.569 86.3987 122.057 86.004C121.545 85.5987 121.289 85.0333 121.289 84.308C121.289 83.764 121.428 83.3 121.705 82.916C121.983 82.5213 122.367 82.2227 122.857 82.02C123.348 81.8067 123.913 81.7 124.553 81.7C125.513 81.7 126.292 81.9133 126.889 82.34C127.487 82.7667 127.796 83.4013 127.817 84.244H126.377C126.367 83.9027 126.207 83.6147 125.897 83.38C125.599 83.1347 125.151 83.012 124.553 83.012C123.956 83.012 123.503 83.1347 123.193 83.38C122.884 83.6253 122.729 83.9347 122.729 84.308C122.729 84.628 122.836 84.884 123.049 85.076C123.273 85.268 123.636 85.3907 124.137 85.444L125.065 85.54C125.983 85.636 126.719 85.892 127.273 86.308C127.828 86.7133 128.105 87.2893 128.105 88.036C128.105 88.5693 127.951 89.044 127.641 89.46C127.343 89.8653 126.927 90.1853 126.393 90.42C125.86 90.644 125.247 90.756 124.553 90.756ZM133.131 90.756C132.011 90.756 131.142 90.516 130.523 90.036C129.915 89.556 129.601 88.9 129.579 88.068H131.019C131.041 88.3987 131.206 88.7133 131.515 89.012C131.835 89.3 132.374 89.444 133.131 89.444C133.814 89.444 134.337 89.3107 134.699 89.044C135.062 88.7667 135.243 88.4307 135.243 88.036C135.243 87.684 135.11 87.412 134.843 87.22C134.577 87.0173 134.145 86.884 133.547 86.82L132.619 86.724C131.809 86.6387 131.147 86.3987 130.635 86.004C130.123 85.5987 129.867 85.0333 129.867 84.308C129.867 83.764 130.006 83.3 130.283 82.916C130.561 82.5213 130.945 82.2227 131.435 82.02C131.926 81.8067 132.491 81.7 133.131 81.7C134.091 81.7 134.87 81.9133 135.467 82.34C136.065 82.7667 136.374 83.4013 136.395 84.244H134.955C134.945 83.9027 134.785 83.6147 134.475 83.38C134.177 83.1347 133.729 83.012 133.131 83.012C132.534 83.012 132.081 83.1347 131.771 83.38C131.462 83.6253 131.307 83.9347 131.307 84.308C131.307 84.628 131.414 84.884 131.627 85.076C131.851 85.268 132.214 85.3907 132.715 85.444L133.643 85.54C134.561 85.636 135.297 85.892 135.851 86.308C136.406 86.7133 136.683 87.2893 136.683 88.036C136.683 88.5693 136.529 89.044 136.219 89.46C135.921 89.8653 135.505 90.1853 134.971 90.42C134.438 90.644 133.825 90.756 133.131 90.756ZM147.846 90.788C146.779 90.788 145.867 90.6013 145.11 90.228C144.363 89.8547 143.761 89.3693 143.302 88.772C142.843 88.1747 142.507 87.5293 142.294 86.836C142.081 86.132 141.974 85.4547 141.974 84.804V84.452C141.974 83.748 142.081 83.044 142.294 82.34C142.518 81.636 142.859 80.996 143.318 80.42C143.777 79.844 144.374 79.38 145.11 79.028C145.846 78.676 146.726 78.5 147.75 78.5C148.795 78.5 149.691 78.6813 150.438 79.044C151.185 79.4067 151.777 79.9133 152.214 80.564C152.651 81.2147 152.918 81.9827 153.014 82.868H151.414C151.329 82.2067 151.115 81.6627 150.774 81.236C150.433 80.7987 150.001 80.4733 149.478 80.26C148.966 80.0467 148.39 79.94 147.75 79.94C147.057 79.94 146.449 80.0627 145.926 80.308C145.403 80.5427 144.966 80.8787 144.614 81.316C144.273 81.7427 144.011 82.2387 143.83 82.804C143.659 83.3693 143.574 83.9827 143.574 84.644C143.574 85.2733 143.659 85.8707 143.83 86.436C144.011 87.0013 144.278 87.5027 144.63 87.94C144.993 88.3773 145.441 88.724 145.974 88.98C146.507 89.2253 147.131 89.348 147.846 89.348C148.849 89.348 149.691 89.0973 150.374 88.596C151.057 88.0947 151.473 87.3693 151.622 86.42H153.222C153.115 87.22 152.843 87.9507 152.406 88.612C151.979 89.2733 151.382 89.8013 150.614 90.196C149.857 90.5907 148.934 90.788 147.846 90.788ZM159.205 90.788C158.458 90.788 157.802 90.66 157.237 90.404C156.672 90.148 156.192 89.812 155.797 89.396C155.413 88.9693 155.12 88.4947 154.917 87.972C154.725 87.4493 154.629 86.916 154.629 86.372V86.084C154.629 85.54 154.73 85.0067 154.933 84.484C155.136 83.9507 155.434 83.476 155.829 83.06C156.224 82.6333 156.704 82.2973 157.269 82.052C157.834 81.796 158.48 81.668 159.205 81.668C159.93 81.668 160.576 81.796 161.141 82.052C161.706 82.2973 162.186 82.6333 162.581 83.06C162.976 83.476 163.274 83.9507 163.477 84.484C163.68 85.0067 163.781 85.54 163.781 86.084V86.372C163.781 86.916 163.68 87.4493 163.477 87.972C163.285 88.4947 162.992 88.9693 162.597 89.396C162.213 89.812 161.738 90.148 161.173 90.404C160.608 90.66 159.952 90.788 159.205 90.788ZM159.205 89.412C159.845 89.412 160.389 89.2733 160.837 88.996C161.296 88.708 161.642 88.324 161.877 87.844C162.122 87.364 162.245 86.8253 162.245 86.228C162.245 85.62 162.122 85.076 161.877 84.596C161.632 84.116 161.28 83.7373 160.821 83.46C160.373 83.1827 159.834 83.044 159.205 83.044C158.586 83.044 158.048 83.1827 157.589 83.46C157.13 83.7373 156.778 84.116 156.533 84.596C156.288 85.076 156.165 85.62 156.165 86.228C156.165 86.8253 156.282 87.364 156.517 87.844C156.762 88.324 157.109 88.708 157.557 88.996C158.016 89.2733 158.565 89.412 159.205 89.412ZM169.041 90.756C168.028 90.756 167.249 90.4253 166.705 89.764C166.161 89.1027 165.889 88.148 165.889 86.9V81.94H167.425V87.204C167.425 87.876 167.607 88.404 167.969 88.788C168.332 89.1613 168.823 89.348 169.441 89.348C170.081 89.348 170.604 89.1453 171.009 88.74C171.415 88.324 171.617 87.7587 171.617 87.044V81.94H173.153V90.5H171.937V86.836H172.129C172.129 87.6787 172.017 88.3933 171.793 88.98C171.569 89.556 171.233 89.9987 170.785 90.308C170.348 90.6067 169.788 90.756 169.105 90.756H169.041ZM176.128 90.5V81.956H177.344V85.476H177.28C177.28 84.228 177.552 83.316 178.096 82.74C178.651 82.1533 179.478 81.86 180.576 81.86H180.864V83.236H180.32C179.467 83.236 178.811 83.4653 178.352 83.924C177.894 84.372 177.664 85.0227 177.664 85.876V90.5H176.128ZM185.491 90.756C184.371 90.756 183.501 90.516 182.883 90.036C182.275 89.556 181.96 88.9 181.939 88.068H183.379C183.4 88.3987 183.565 88.7133 183.875 89.012C184.195 89.3 184.733 89.444 185.491 89.444C186.173 89.444 186.696 89.3107 187.059 89.044C187.421 88.7667 187.603 88.4307 187.603 88.036C187.603 87.684 187.469 87.412 187.203 87.22C186.936 87.0173 186.504 86.884 185.907 86.82L184.979 86.724C184.168 86.6387 183.507 86.3987 182.995 86.004C182.483 85.5987 182.227 85.0333 182.227 84.308C182.227 83.764 182.365 83.3 182.643 82.916C182.92 82.5213 183.304 82.2227 183.795 82.02C184.285 81.8067 184.851 81.7 185.491 81.7C186.451 81.7 187.229 81.9133 187.827 82.34C188.424 82.7667 188.733 83.4013 188.755 84.244H187.315C187.304 83.9027 187.144 83.6147 186.835 83.38C186.536 83.1347 186.088 83.012 185.491 83.012C184.893 83.012 184.44 83.1347 184.131 83.38C183.821 83.6253 183.667 83.9347 183.667 84.308C183.667 84.628 183.773 84.884 183.987 85.076C184.211 85.268 184.573 85.3907 185.075 85.444L186.003 85.54C186.92 85.636 187.656 85.892 188.211 86.308C188.765 86.7133 189.043 87.2893 189.043 88.036C189.043 88.5693 188.888 89.044 188.579 89.46C188.28 89.8653 187.864 90.1853 187.331 90.42C186.797 90.644 186.184 90.756 185.491 90.756ZM194.901 90.788C194.154 90.788 193.509 90.66 192.965 90.404C192.421 90.148 191.978 89.812 191.637 89.396C191.296 88.9693 191.04 88.4947 190.869 87.972C190.709 87.4493 190.629 86.916 190.629 86.372V86.084C190.629 85.5293 190.709 84.9907 190.869 84.468C191.04 83.9453 191.296 83.476 191.637 83.06C191.978 82.6333 192.41 82.2973 192.933 82.052C193.466 81.796 194.09 81.668 194.805 81.668C195.733 81.668 196.496 81.8707 197.093 82.276C197.701 82.6707 198.149 83.1827 198.437 83.812C198.736 84.4413 198.885 85.1133 198.885 85.828V86.516H191.301V85.364H197.765L197.413 85.988C197.413 85.38 197.317 84.8573 197.125 84.42C196.933 83.972 196.645 83.6253 196.261 83.38C195.877 83.1347 195.392 83.012 194.805 83.012C194.197 83.012 193.69 83.1507 193.285 83.428C192.89 83.7053 192.592 84.084 192.389 84.564C192.197 85.044 192.101 85.5987 192.101 86.228C192.101 86.836 192.197 87.3853 192.389 87.876C192.592 88.356 192.901 88.74 193.317 89.028C193.733 89.3053 194.261 89.444 194.901 89.444C195.573 89.444 196.117 89.2947 196.533 88.996C196.96 88.6973 197.216 88.3507 197.301 87.956H198.741C198.624 88.5427 198.389 89.0493 198.037 89.476C197.685 89.9027 197.242 90.228 196.709 90.452C196.176 90.676 195.573 90.788 194.901 90.788ZM203.866 90.756C202.746 90.756 201.876 90.516 201.258 90.036C200.65 89.556 200.335 88.9 200.314 88.068H201.754C201.775 88.3987 201.94 88.7133 202.25 89.012C202.57 89.3 203.108 89.444 203.866 89.444C204.548 89.444 205.071 89.3107 205.434 89.044C205.796 88.7667 205.978 88.4307 205.978 88.036C205.978 87.684 205.844 87.412 205.578 87.22C205.311 87.0173 204.879 86.884 204.282 86.82L203.354 86.724C202.543 86.6387 201.882 86.3987 201.37 86.004C200.858 85.5987 200.602 85.0333 200.602 84.308C200.602 83.764 200.74 83.3 201.018 82.916C201.295 82.5213 201.679 82.2227 202.17 82.02C202.66 81.8067 203.226 81.7 203.866 81.7C204.826 81.7 205.604 81.9133 206.202 82.34C206.799 82.7667 207.108 83.4013 207.13 84.244H205.69C205.679 83.9027 205.519 83.6147 205.21 83.38C204.911 83.1347 204.463 83.012 203.866 83.012C203.268 83.012 202.815 83.1347 202.506 83.38C202.196 83.6253 202.042 83.9347 202.042 84.308C202.042 84.628 202.148 84.884 202.362 85.076C202.586 85.268 202.948 85.3907 203.45 85.444L204.378 85.54C205.295 85.636 206.031 85.892 206.586 86.308C207.14 86.7133 207.418 87.2893 207.418 88.036C207.418 88.5693 207.263 89.044 206.954 89.46C206.655 89.8653 206.239 90.1853 205.706 90.42C205.172 90.644 204.559 90.756 203.866 90.756Z" fill="#333931"/>
</g>
<defs>
<filter id="filter0_d_2_2367" x="0" y="0" width="278.91" height="140" filterUnits="userSpaceOnUse" color-interpolation-filters="sRGB">
<feFlood flood-opacity="0" result="BackgroundImageFix"/>
<feColorMatrix in="SourceAlpha" type="matrix" values="0 0 0 0 0 0 0 0 0 0 0 0 0 0 0 0 0 0 127 0" result="hardAlpha"/>
<feOffset/>
<feGaussianBlur stdDeviation="10"/>
<feComposite in2="hardAlpha" operator="out"/>
<feColorMatrix type="matrix" values="0 0 0 0 0.0745098 0 0 0 0 0.152941 0 0 0 0 0.258824 0 0 0 0.15 0"/>
<feBlend mode="normal" in2="BackgroundImageFix" result="effect1_dropShadow_2_2367"/>
<feBlend mode="normal" in="SourceGraphic" in2="effect1_dropShadow_2_2367" result="shape"/>
</filter>
</defs>
</svg>
